<?xml version="1.0" encoding="UTF-8"?>
<svg id="numbers" xmlns="http://www.w3.org/2000/svg" viewBox="0 0 1087 1087">
  <defs>
  </defs>
  <g id="numgroup1">
    <g id="num1">
      <circle class="numcircle" cx="600" cy="283.5" r="24"/>
    </g>
    <text id="numtile1" class="blacktxt" transform="translate(378.951 290.514)"><tspan x="0" y="0">10</tspan></text>
  </g>
  <g id="numgroup2">
    <circle class="numcircle" cx="540.25" cy="283.75" r="24"/>
    <text id="numtile2" class="blacktxt" transform="translate(534.526 290.514)"><tspan x="0" y="0">2</tspan></text>
  </g>
  <g id="numgroup3">
    <circle class="numcircle" cx="689.75" cy="283.75" r="24"/>
    <text id="numtile3" class="blacktxt" transform="translate(684.526 290.514)"><tspan x="0" y="0">9</tspan></text>
  </g>
  <g id="numgroup4">
    <circle class="numcircle" cx="315.25" cy="413.25" r="24"/>
    <text id="numtile4" class="blacktxt" transform="translate(303.951 420.514)"><tspan x="0" y="0">12</tspan></text>
  </g>
  <g id="numgroup5">
    <circle class="numcircle" cx="465.25" cy="413.25" r="24"/>
    <text id="numtile5" class="redtxt" transform="translate(459.526 420.514)"><tspan x="0" y="0">6</tspan></text>
  </g>
  <g id="numgroup6">
    <circle class="numcircle" cx="615.25" cy="413.25" r="24"/>
    <text id="numtile6" class="blacktxt" transform="translate(609.526 420.514)"><tspan x="0" y="0">4</tspan></text>
  </g>
  <g id="numgroup7">
    <circle class="numcircle" cx="765.25" cy="413.5" r="24"/>
    <text id="numtile7" class="blacktxt" transform="translate(753.951 420.514)"><tspan x="0" y="0">10</tspan></text>
  </g>
  <g id="numgroup8">
    <circle class="numcircle" cx="239.75" cy="543.75" r="24"/>
    <text id="numtile8" class="blacktxt" transform="translate(234.526 550.514)"><tspan x="0" y="0">9</tspan></text>
  </g>
  <g id="numgroup9">
    <g id="num9">
      <circle class="numcircle" cx="390.25" cy="543.75" r="24"/>
    </g>
    <text id="numtile9" class="blacktxt" transform="translate(378.951 550.514)"><tspan x="0" y="0">11</tspan></text>
  </g>
  <g id="numgroup10">
    <circle class="numcircle" cx="539.75" cy="543.75" r="24"/>
    <text id="numtile10" class="blacktxt" transform="translate(534.043 550.514)"><tspan x="0" y="0">X</tspan></text>
  </g>
  <g>
    <circle class="numcircle" cx="689.75" cy="543.75" r="24"/>
    <text id="numtile11" class="blacktxt" transform="translate(684.526 550.514)"><tspan x="0" y="0">3</tspan></text>
  </g>
  <g>
    <circle class="numcircle" cx="840.25" cy="543.75" r="24"/>
    <text id="numtile12" class="redtxt" transform="translate(834.526 550.514)"><tspan x="0" y="0">8</tspan></text>
  </g>
  <g>
    <circle class="numcircle" cx="314.853" cy="673.658" r="24"/>
    <text id="numtile13" class="redtxt" transform="translate(309.526 680.514)"><tspan x="0" y="0">8</tspan></text>
  </g>
  <g>
    <circle class="numcircle" cx="464.853" cy="673.658" r="24"/>
    <text id="numtile14" class="blacktxt" transform="translate(459.526 680.514)"><tspan x="0" y="0">3</tspan></text>
  </g>
  <g>
    <circle class="numcircle" cx="615.353" cy="673.658" r="24"/>
    <text id="numtile15" class="blacktxt" transform="translate(609.526 680.514)"><tspan x="0" y="0">4</tspan></text>
  </g>
  <g>
    <circle class="numcircle" cx="765.353" cy="673.658" r="24"/>
    <text id="numtile16" class="blacktxt" transform="translate(759.526 680.514)"><tspan x="0" y="0">5</tspan></text>
  </g>
  <g>
    <g id="num17">
      <circle class="numcircle" cx="389.75" cy="803.75" r="24"/>
    </g>
    <text id="numtile17" class="blacktxt" transform="translate(384.526 810.514)"><tspan x="0" y="0">5</tspan></text>
  </g>
  <g>
    <circle class="numcircle" cx="539.75" cy="803.75" r="24"/>
    <text id="numtile18" class="redtxt" transform="translate(534.526 810.514)"><tspan x="0" y="0">6</tspan></text>
  </g>
  <g>
    <circle class="numcircle" cx="689.75" cy="803.75" r="24"/>
    <text id="numtile19" class="blacktxt" transform="translate(678.951 810.514)"><tspan x="0" y="0">11</tspan></text>
  </g>
</svg>